<?xml version="1.0" encoding="utf-8"?>
<!-- Generator: Adobe Illustrator 16.0.3, SVG Export Plug-In . SVG Version: 6.00 Build 0)  -->
<!DOCTYPE svg PUBLIC "-//W3C//DTD SVG 1.1//EN" "http://www.w3.org/Graphics/SVG/1.1/DTD/svg11.dtd">
<svg version="1.1" id="Layer_1" xmlns="http://www.w3.org/2000/svg" xmlns:xlink="http://www.w3.org/1999/xlink" x="0px" y="0px"
	 width="72px" height="56px" viewBox="0 0 72 56" enable-background="new 0 0 72 56" xml:space="preserve">
<g>
	<g>
		<g>
			<path d="M2.524,4.189c6.087,12.47,12.173,24.939,18.26,37.409c0.96,1.968,3.888,0.246,2.932-1.713
				c-6.087-12.47-12.173-24.939-18.26-37.409C4.496,0.509,1.568,2.23,2.524,4.189L2.524,4.189z"/>
		</g>
	</g>
	<g>
		<g>
			<path d="M22,42.333c0,0,26,0,38,0c3,0,3-3,0-3c-12,0-25,0-38,0C20,39.333,20,42.333,22,42.333C22,42.333,20,42.333,22,42.333z"/>
		</g>
	</g>
	<g>
		<g>
			<path d="M15,26.333c0,0,34,0,51,0c3,0,3-3,0-3c-17,0-34,0-51,0C13,23.333,13,26.333,15,26.333C15,26.333,13,26.333,15,26.333z"/>
		</g>
	</g>
	<g>
		<g>
			<path d="M11,18.333c0,0,39,0,59,0c2,0,2-3,0-3c-20,0-39,0-59,0C9,15.333,9,18.333,11,18.333C11,18.333,9,18.333,11,18.333z"/>
		</g>
	</g>
	<circle fill="#020202" stroke="#000000" stroke-width="0.8845" stroke-miterlimit="10" cx="27.13" cy="50.44" r="3.892"/>
	<g>
		<g>
			<path d="M19,34.333c0,0,30,0,45,0c2,0,2-3,0-3c-15,0-30,0-45,0C17,31.333,17,34.333,19,34.333C19,34.333,17,34.333,19,34.333z"/>
		</g>
	</g>
	<circle fill="#020202" stroke="#000000" stroke-width="0.8845" stroke-miterlimit="10" cx="56.637" cy="50.44" r="3.892"/>
</g>
</svg>
