<?xml version="1.0" encoding="utf-8"?>
<!-- Generator: Adobe Illustrator 16.0.3, SVG Export Plug-In . SVG Version: 6.00 Build 0)  -->
<!DOCTYPE svg PUBLIC "-//W3C//DTD SVG 1.1//EN" "http://www.w3.org/Graphics/SVG/1.1/DTD/svg11.dtd">
<svg version="1.1" id="Layer_1" xmlns="http://www.w3.org/2000/svg" xmlns:xlink="http://www.w3.org/1999/xlink" x="0px" y="0px"
	 width="38.334px" height="33.834px" viewBox="0 0 38.334 33.834" enable-background="new 0 0 38.334 33.834" xml:space="preserve">
<g>
	<g>
		<path d="M0.823,2.716c3.504,7.179,7.008,14.358,10.512,21.537c0.553,1.133,2.238,0.142,1.688-0.986
			C9.519,16.088,6.015,8.908,2.511,1.729C1.958,0.597,0.272,1.588,0.823,2.716L0.823,2.716z"/>
	</g>
</g>
<g>
	<g>
		<path d="M12.667,25.334c0,0,16,0,24,0c1,0,1-3,0-3c-8,0-16,0-24,0C10.667,22.334,10.667,25.334,12.667,25.334
			C12.667,25.334,10.667,25.334,12.667,25.334z"/>
	</g>
</g>
<circle fill="#020202" stroke="#000000" stroke-width="0.558" stroke-miterlimit="10" cx="15.257" cy="29.878" r="2.455"/>
<circle fill="#020202" stroke="#000000" stroke-width="0.558" stroke-miterlimit="10" cx="33.872" cy="29.878" r="2.455"/>
</svg>
